{"title":"Life.As.We.Know.It.2010.PPVRip XviD Feel-Free","uid":6104400,"size":843213201,"categoryP":"video","categoryS":"movies","magnet":"?xt=urn:btih:8e7e2e8aa4b13d26ea8cc8126c50f9a343d41ccf&amp;dn=Life.As.We.Know.It.2010.PPVRip+XviD+Feel-Free&amp;tr=udp%3A%2F%2Ftracker.openbittorrent.com%3A80&amp;tr=udp%3A%2F%2Fopen.demonii.com%3A1337&amp;tr=udp%3A%2F%2Ftracker.coppersurfer.tk%3A6969&amp;tr=udp%3A%2F%2Fexodus.desync.com%3A6969","seeders":1,"leechers":0,"uploader":"neon","files":10,"time":1295106374,"description":"Life.As.We.Know.It.2010.PPVRip XviD Feel-Free\n\nGenre:Comedy | Drama\nLanguage:English\nIMDb:http://www.imdb.com/title/tt1055292/\nSource:IFLIX Thx.\nSubtitles:Romana\n\nFormat : AVI\nFormat/Info : Audio Video Interleave\nFile size : 802 MiB\nDuration : 1h 54mn\nOverall bit rate : 978 Kbps\n\n\nVideo\nCodec ID/Hint : XviD\nDuration : 1h 54mn\nBit rate : 836 Kbps\nWidth : 576 pixels\nHeight : 416 pixels\nDisplay aspect ratio : 1.385\nFrame rate : 29.970 fps\nColor space : YUV\nChroma subsampling : 4:2:0\nBit depth : 8 bits\nScan type : Progressive\nBits/(Pixel*Frame) : 0.116\nStream size : 686 MiB (86%)\nWriting library : XviD 1.2.1 (UTC 2008-12-04)\n\nAudio\nID : 1\nFormat : MPEG Audio\nFormat version : Version 1\nFormat profile : Layer 3\nMode : Joint stereo\nMode extension : MS Stereo\nCodec ID : 55\nCodec ID/Hint : MP3\nDuration : 1h 54mn\nBit rate mode : Constant\nBit rate : 128 Kbps\nChannel(s) : 2 channels\nSampling rate : 44.1 KHz\nStream size : 105 MiB (13%)\nAlignment : Aligned on interleaves\nInterleave, duration : 26 ms (0.78 video frame)\nInterleave, preload duration : 522 ms\nWriting library : LAME3.98.2\n\n\n\nPlot:\nTwo single adults become caregivers to an orphaned girl when their mutual best friends die in an accident.\n","torrent":{"xt":"urn:btih:8e7e2e8aa4b13d26ea8cc8126c50f9a343d41ccf","amp;dn":"Life.As.We.Know.It.2010.PPVRip+XviD+Feel-Free","amp;tr":["udp%3A%2F%2Ftracker.openbittorrent.com%3A80","udp%3A%2F%2Fopen.demonii.com%3A1337","udp%3A%2F%2Ftracker.coppersurfer.tk%3A6969","udp%3A%2F%2Fexodus.desync.com%3A6969"],"infoHash":"8e7e2e8aa4b13d26ea8cc8126c50f9a343d41ccf","infoHashBuffer":{"type":"Buffer","data":[142,126,46,138,164,177,61,38,234,140,200,18,108,80,249,163,67,212,28,207]},"announce":[],"urlList":[]}}